M48
; DRILL file {KiCad (5.1.10)-1} date 12/09/21 17:34:55
; FORMAT={-:-/ absolute / inch / decimal}
; #@! TF.CreationDate,2021-12-09T17:34:55-06:00
; #@! TF.GenerationSoftware,Kicad,Pcbnew,(5.1.10)-1
; #@! TF.FileFunction,Plated,1,2,PTH
FMAT,2
INCH
T1C0.0197
T2C0.0236
T3C0.0276
T4C0.0315
T5C0.0354
T6C0.0394
T7C0.0433
T8C0.0551
T9C0.0591
%
G90
G05
T1
X4.8574Y-3.8926
X5.2301Y-3.348
X5.2652Y-2.8827
X5.4083Y-3.4689
X5.9141Y-3.5334
X5.9141Y-3.5807
X5.9141Y-3.6279
X5.9141Y-3.6752
X5.9141Y-3.7224
X5.9141Y-3.7697
X5.9141Y-3.8169
X6.0598Y-3.5334
X6.0598Y-3.5807
X6.0598Y-3.6279
X6.0598Y-3.6752
X6.0598Y-3.7224
X6.0598Y-3.7697
X6.0598Y-3.8169
X6.1403Y-3.3115
X6.4569Y-3.4214
X6.6047Y-3.7862
X6.9403Y-3.7911
T2
X4.2322Y-3.6203
X4.2987Y-3.6192
X4.5354Y-3.6382
X4.6019Y-3.6371
T3
X4.0683Y-3.8967
X4.0683Y-4.0967
X4.0811Y-3.4256
X4.0811Y-3.6256
X4.083Y-2.9881
X4.083Y-3.1881
X5.2744Y-3.6145
X5.2744Y-3.6657
X5.4083Y-3.6145
X5.4083Y-3.6657
X5.9141Y-3.4862
X6.0598Y-3.4862
T4
X8.1942Y-3.0493
X8.1942Y-3.1517
X8.1942Y-3.2541
X8.1942Y-3.3564
X8.1942Y-3.4588
X8.1942Y-3.5611
X8.1942Y-3.6635
X8.1942Y-3.7659
X8.1942Y-3.8682
X8.1942Y-3.9706
X8.1942Y-4.073
T5
X4.247Y-4.0874
X4.247Y-4.2173
X4.3454Y-4.0874
X4.3454Y-4.2173
X4.4438Y-4.0874
X4.4438Y-4.2173
T6
X4.3059Y-3.2295
X4.6996Y-3.2295
X4.8206Y-1.9152
X4.8481Y-5.2768
X5.3485Y-1.9152
X5.376Y-5.2768
X6.0534Y-4.0892
X6.1534Y-4.0892
X6.2534Y-4.0892
X6.3157Y-3.2642
X6.3157Y-3.8642
X6.4157Y-3.2642
X6.4157Y-3.8642
X6.5157Y-3.2642
X6.5157Y-3.8642
X6.6157Y-3.2642
X6.6157Y-3.8642
X6.7157Y-3.2642
X6.7157Y-3.8642
X6.8157Y-3.2642
X6.8157Y-3.8642
X6.9157Y-3.2642
X6.9157Y-3.8642
X7.0157Y-3.2642
X7.0157Y-3.8642
X7.1157Y-3.2642
X7.1157Y-3.8642
X7.2157Y-3.2642
X7.2157Y-3.8642
X7.3157Y-3.2642
X7.3157Y-3.8642
X7.4157Y-3.2642
X7.4157Y-3.8642
X7.5157Y-3.2642
X7.5157Y-3.8642
X7.6157Y-3.2642
X7.6157Y-3.8642
X7.7157Y-3.2642
X7.7157Y-3.8642
T7
X3.7502Y-3.4283
X3.7502Y-3.6842
X3.7549Y-2.9828
X3.7549Y-3.2387
X3.7581Y-3.882
X3.7581Y-4.1379
X3.9274Y-3.4283
X3.9274Y-3.6842
X3.9321Y-2.9828
X3.9321Y-3.2387
X3.9353Y-3.882
X3.9353Y-4.1379
X4.8666Y-2.2657
X4.8842Y-4.9242
X4.9557Y-2.267
X4.9731Y-4.9242
X5.0424Y-2.2678
X5.0598Y-4.9242
X5.1369Y-2.2678
X5.1543Y-4.9242
X5.2235Y-2.2678
X5.2409Y-4.925
X5.3124Y-2.2678
X5.33Y-4.9263
T8
X5.6606Y-3.4634
X5.6606Y-3.5634
X5.6606Y-3.6634
X5.6606Y-3.7634
T9
X4.5209Y-4.6208
X4.6883Y-4.6218
X8.1942Y-2.6556
X8.1942Y-4.4667
T1
G00X5.2744Y-3.4216
M15
G01X5.2744Y-3.4216
M16
G05
G00X5.2744Y-3.4689
M15
G01X5.2744Y-3.4689
M16
G05
G00X5.4083Y-3.4216
M15
G01X5.4083Y-3.4216
M16
G05
T0
M30
