%TF.GenerationSoftware,KiCad,Pcbnew,(5.1.10)-1*%
%TF.CreationDate,2021-12-09T17:47:58-06:00*%
%TF.ProjectId,Sigue_lineas,53696775-655f-46c6-996e-6561732e6b69,rev?*%
%TF.SameCoordinates,Original*%
%TF.FileFunction,Legend,Top*%
%TF.FilePolarity,Positive*%
%FSLAX46Y46*%
G04 Gerber Fmt 4.6, Leading zero omitted, Abs format (unit mm)*
G04 Created by KiCad (PCBNEW (5.1.10)-1) date 2021-12-09 17:47:58*
%MOMM*%
%LPD*%
G01*
G04 APERTURE LIST*
%ADD10C,0.120000*%
%ADD11C,0.100000*%
%ADD12C,0.150000*%
G04 APERTURE END LIST*
D10*
%TO.C,A1*%
X156479000Y-81511900D02*
X156479000Y-99551900D01*
X199919000Y-81511900D02*
X156479000Y-81511900D01*
X199919000Y-99551900D02*
X199919000Y-81511900D01*
X197249000Y-96881900D02*
X197249000Y-99551900D01*
X161689000Y-96881900D02*
X197249000Y-96881900D01*
X161689000Y-96881900D02*
X161689000Y-99551900D01*
X197249000Y-84181900D02*
X197249000Y-81511900D01*
X159149000Y-84181900D02*
X197249000Y-84181900D01*
X159149000Y-84181900D02*
X159149000Y-81511900D01*
X156479000Y-99551900D02*
X159149000Y-99551900D01*
X161689000Y-99551900D02*
X199919000Y-99551900D01*
X159149000Y-96881900D02*
X159149000Y-99551900D01*
X161689000Y-96881900D02*
X159149000Y-96881900D01*
%TO.C,BZ1*%
X121470000Y-82029300D02*
G75*
G03*
X121470000Y-82029300I-7100000J0D01*
G01*
%TO.C,J1*%
X118134000Y-93375500D02*
X114134000Y-93375500D01*
X114134000Y-93375500D02*
X114134000Y-91150460D01*
X118134000Y-91375500D02*
X114134000Y-91375500D01*
X118132980Y-91130140D02*
X118132980Y-93375500D01*
X118127900Y-91114900D02*
X114132480Y-91114900D01*
%TO.C,J2*%
X110426900Y-90660200D02*
X106431480Y-90660200D01*
X110431980Y-90675440D02*
X110431980Y-92920800D01*
X110433000Y-90920800D02*
X106433000Y-90920800D01*
X106433000Y-92920800D02*
X106433000Y-90695760D01*
X110433000Y-92920800D02*
X106433000Y-92920800D01*
D11*
%TO.C,LCD1*%
G36*
X127187820Y-104371140D02*
G01*
X127187820Y-78963520D01*
X141706460Y-78963520D01*
X141706460Y-104371140D01*
X127187820Y-104371140D01*
G37*
X127187820Y-104371140D02*
X127187820Y-78963520D01*
X141706460Y-78963520D01*
X141706460Y-104371140D01*
X127187820Y-104371140D01*
D10*
X122933780Y-106770200D02*
X122933780Y-76770200D01*
X146937100Y-76770200D02*
X122933780Y-76770200D01*
X146937100Y-106770200D02*
X146937100Y-76770200D01*
X146936320Y-106770200D02*
X122933000Y-106770200D01*
%TO.C,R1*%
X103335000Y-99896200D02*
X103335000Y-103056200D01*
X104255000Y-98976200D02*
G75*
G03*
X104255000Y-98976200I-920000J0D01*
G01*
%TO.C,R2*%
X104580000Y-87010200D02*
G75*
G03*
X104580000Y-87010200I-920000J0D01*
G01*
X103660000Y-87930200D02*
X103660000Y-91090200D01*
%TO.C,R3*%
X103708000Y-76817700D02*
X103708000Y-79977700D01*
X104628000Y-75897700D02*
G75*
G03*
X104628000Y-75897700I-920000J0D01*
G01*
%TO.C,SW1*%
X113773000Y-107569000D02*
X114973000Y-107569000D01*
X114973000Y-107569000D02*
X114973000Y-103369000D01*
X114973000Y-103369000D02*
X113773000Y-103369000D01*
X106973000Y-107569000D02*
X105773000Y-107569000D01*
X105773000Y-107569000D02*
X105773000Y-103369000D01*
X105773000Y-103369000D02*
X106973000Y-103369000D01*
X114073000Y-107869000D02*
X115273000Y-107869000D01*
X115273000Y-107869000D02*
X115273000Y-106669000D01*
%TO.C,SW2*%
X96956600Y-105352800D02*
X98456600Y-105352800D01*
X100956600Y-104102800D02*
X100956600Y-99602800D01*
X98456600Y-98352800D02*
X96956600Y-98352800D01*
X94456600Y-99602800D02*
X94456600Y-104102800D01*
%TO.C,SW3*%
X96756000Y-93828800D02*
X98256000Y-93828800D01*
X100756000Y-92578800D02*
X100756000Y-88078800D01*
X98256000Y-86828800D02*
X96756000Y-86828800D01*
X94256000Y-88078800D02*
X94256000Y-92578800D01*
%TO.C,SW4*%
X94375300Y-76763100D02*
X94375300Y-81263100D01*
X98375300Y-75513100D02*
X96875300Y-75513100D01*
X100875300Y-81263100D02*
X100875300Y-76763100D01*
X96875300Y-82513100D02*
X98375300Y-82513100D01*
%TO.C,U3*%
X155019000Y-97749400D02*
X155019000Y-87749400D01*
X149219000Y-97749400D02*
X149219000Y-87749400D01*
X155019000Y-87749400D02*
X149219000Y-87749400D01*
X155019000Y-97749400D02*
X149219000Y-97749400D01*
D11*
%TO.C,U4*%
G36*
X134221380Y-46151780D02*
G01*
X124048680Y-46151780D01*
X124048680Y-43621940D01*
X134221380Y-43621940D01*
X134221380Y-46151780D01*
G37*
X134221380Y-46151780D02*
X124048680Y-46151780D01*
X124048680Y-43621940D01*
X134221380Y-43621940D01*
X134221380Y-46151780D01*
D10*
X134208680Y-43604160D02*
X134208680Y-43680360D01*
X124061380Y-43604160D02*
X134208680Y-43604160D01*
X124018200Y-46139080D02*
X134160420Y-46139080D01*
X124018200Y-51793120D02*
X134160420Y-51793120D01*
X134206140Y-43646300D02*
X134206140Y-55646300D01*
X124046140Y-43646300D02*
X124046140Y-55646300D01*
X122136060Y-58966080D02*
X122136060Y-55631060D01*
X122138600Y-55646300D02*
X136413400Y-55646300D01*
X122136060Y-58966080D02*
X136415940Y-58966080D01*
X129270920Y-55643760D02*
X129270920Y-56631820D01*
X136413400Y-58981320D02*
X136413400Y-55646300D01*
%TO.C,U5*%
X122580600Y-123694980D02*
X122580600Y-127030000D01*
X129723080Y-127032540D02*
X129723080Y-126044480D01*
X136857940Y-123710220D02*
X122578060Y-123710220D01*
X136855400Y-127030000D02*
X122580600Y-127030000D01*
X136857940Y-123710220D02*
X136857940Y-127045240D01*
X134947860Y-139030000D02*
X134947860Y-127030000D01*
X124787860Y-139030000D02*
X124787860Y-127030000D01*
X134975800Y-130883180D02*
X124833580Y-130883180D01*
X134975800Y-136537220D02*
X124833580Y-136537220D01*
X134932620Y-139072140D02*
X124785320Y-139072140D01*
X124785320Y-139072140D02*
X124785320Y-138995940D01*
D11*
G36*
X124772620Y-136524520D02*
G01*
X134945320Y-136524520D01*
X134945320Y-139054360D01*
X124772620Y-139054360D01*
X124772620Y-136524520D01*
G37*
X124772620Y-136524520D02*
X134945320Y-136524520D01*
X134945320Y-139054360D01*
X124772620Y-139054360D01*
X124772620Y-136524520D01*
D10*
%TO.C,U6*%
X206632000Y-90453000D02*
X207632000Y-90453000D01*
X206629460Y-114950460D02*
X216631980Y-114950460D01*
X206629460Y-65941160D02*
X216631980Y-65941160D01*
X216632000Y-114953000D02*
X216632000Y-65953000D01*
X206632000Y-114953000D02*
X206632000Y-65953000D01*
%TO.C,J4*%
X112487000Y-114630000D02*
X121487000Y-114630000D01*
X121487000Y-120630000D02*
X121487000Y-114630000D01*
X112487000Y-120630000D02*
X112487000Y-114630000D01*
X112487000Y-120630000D02*
X121487000Y-120630000D01*
%TO.C,J5*%
X157566000Y-102536000D02*
X157566000Y-105196000D01*
X157566000Y-102536000D02*
X152426000Y-102536000D01*
X152426000Y-102536000D02*
X152426000Y-105196000D01*
X157566000Y-105196000D02*
X152426000Y-105196000D01*
X160166000Y-105196000D02*
X158836000Y-105196000D01*
X160166000Y-103866000D02*
X160166000Y-105196000D01*
%TO.C,A1*%
D12*
X168058554Y-100892906D02*
X168534744Y-100892906D01*
X167963316Y-101178620D02*
X168296649Y-100178620D01*
X168629982Y-101178620D01*
X169487125Y-101178620D02*
X168915697Y-101178620D01*
X169201411Y-101178620D02*
X169201411Y-100178620D01*
X169106173Y-100321478D01*
X169010935Y-100416716D01*
X168915697Y-100464335D01*
%TO.C,BZ1*%
X113649047Y-73727871D02*
X113791904Y-73775490D01*
X113839523Y-73823109D01*
X113887142Y-73918347D01*
X113887142Y-74061204D01*
X113839523Y-74156442D01*
X113791904Y-74204061D01*
X113696666Y-74251680D01*
X113315714Y-74251680D01*
X113315714Y-73251680D01*
X113649047Y-73251680D01*
X113744285Y-73299300D01*
X113791904Y-73346919D01*
X113839523Y-73442157D01*
X113839523Y-73537395D01*
X113791904Y-73632633D01*
X113744285Y-73680252D01*
X113649047Y-73727871D01*
X113315714Y-73727871D01*
X114220476Y-73251680D02*
X114887142Y-73251680D01*
X114220476Y-74251680D01*
X114887142Y-74251680D01*
X115791904Y-74251680D02*
X115220476Y-74251680D01*
X115506190Y-74251680D02*
X115506190Y-73251680D01*
X115410952Y-73394538D01*
X115315714Y-73489776D01*
X115220476Y-73537395D01*
X108979047Y-79560728D02*
X109740952Y-79560728D01*
X109360000Y-79941680D02*
X109360000Y-79179776D01*
%TO.C,J1*%
X115815786Y-93787980D02*
X115815786Y-94502266D01*
X115768167Y-94645123D01*
X115672929Y-94740361D01*
X115530072Y-94787980D01*
X115434834Y-94787980D01*
X116815786Y-94787980D02*
X116244358Y-94787980D01*
X116530072Y-94787980D02*
X116530072Y-93787980D01*
X116434834Y-93930838D01*
X116339596Y-94026076D01*
X116244358Y-94073695D01*
%TO.C,J2*%
X108099266Y-93295220D02*
X108099266Y-94009506D01*
X108051647Y-94152363D01*
X107956409Y-94247601D01*
X107813552Y-94295220D01*
X107718314Y-94295220D01*
X108527838Y-93390459D02*
X108575457Y-93342840D01*
X108670695Y-93295220D01*
X108908790Y-93295220D01*
X109004028Y-93342840D01*
X109051647Y-93390459D01*
X109099266Y-93485697D01*
X109099266Y-93580935D01*
X109051647Y-93723792D01*
X108480219Y-94295220D01*
X109099266Y-94295220D01*
%TO.C,LCD1*%
X122448580Y-101740506D02*
X122448580Y-102216697D01*
X121448580Y-102216697D01*
X122353342Y-100835744D02*
X122400961Y-100883363D01*
X122448580Y-101026220D01*
X122448580Y-101121459D01*
X122400961Y-101264316D01*
X122305723Y-101359554D01*
X122210485Y-101407173D01*
X122020009Y-101454792D01*
X121877152Y-101454792D01*
X121686676Y-101407173D01*
X121591438Y-101359554D01*
X121496200Y-101264316D01*
X121448580Y-101121459D01*
X121448580Y-101026220D01*
X121496200Y-100883363D01*
X121543819Y-100835744D01*
X122448580Y-100407173D02*
X121448580Y-100407173D01*
X121448580Y-100169078D01*
X121496200Y-100026220D01*
X121591438Y-99930982D01*
X121686676Y-99883363D01*
X121877152Y-99835744D01*
X122020009Y-99835744D01*
X122210485Y-99883363D01*
X122305723Y-99930982D01*
X122400961Y-100026220D01*
X122448580Y-100169078D01*
X122448580Y-100407173D01*
X122448580Y-98883363D02*
X122448580Y-99454792D01*
X122448580Y-99169078D02*
X121448580Y-99169078D01*
X121591438Y-99264316D01*
X121686676Y-99359554D01*
X121734295Y-99454792D01*
%TO.C,R1*%
X103769420Y-106618066D02*
X103293230Y-106951400D01*
X103769420Y-107189495D02*
X102769420Y-107189495D01*
X102769420Y-106808542D01*
X102817040Y-106713304D01*
X102864659Y-106665685D01*
X102959897Y-106618066D01*
X103102754Y-106618066D01*
X103197992Y-106665685D01*
X103245611Y-106713304D01*
X103293230Y-106808542D01*
X103293230Y-107189495D01*
X103769420Y-105665685D02*
X103769420Y-106237114D01*
X103769420Y-105951400D02*
X102769420Y-105951400D01*
X102912278Y-106046638D01*
X103007516Y-106141876D01*
X103055135Y-106237114D01*
%TO.C,R2*%
X103434853Y-85476340D02*
X103101520Y-85000150D01*
X102863424Y-85476340D02*
X102863424Y-84476340D01*
X103244377Y-84476340D01*
X103339615Y-84523960D01*
X103387234Y-84571579D01*
X103434853Y-84666817D01*
X103434853Y-84809674D01*
X103387234Y-84904912D01*
X103339615Y-84952531D01*
X103244377Y-85000150D01*
X102863424Y-85000150D01*
X103815805Y-84571579D02*
X103863424Y-84523960D01*
X103958662Y-84476340D01*
X104196758Y-84476340D01*
X104291996Y-84523960D01*
X104339615Y-84571579D01*
X104387234Y-84666817D01*
X104387234Y-84762055D01*
X104339615Y-84904912D01*
X103768186Y-85476340D01*
X104387234Y-85476340D01*
%TO.C,R3*%
X103638053Y-74417180D02*
X103304720Y-73940990D01*
X103066624Y-74417180D02*
X103066624Y-73417180D01*
X103447577Y-73417180D01*
X103542815Y-73464800D01*
X103590434Y-73512419D01*
X103638053Y-73607657D01*
X103638053Y-73750514D01*
X103590434Y-73845752D01*
X103542815Y-73893371D01*
X103447577Y-73940990D01*
X103066624Y-73940990D01*
X103971386Y-73417180D02*
X104590434Y-73417180D01*
X104257100Y-73798133D01*
X104399958Y-73798133D01*
X104495196Y-73845752D01*
X104542815Y-73893371D01*
X104590434Y-73988609D01*
X104590434Y-74226704D01*
X104542815Y-74321942D01*
X104495196Y-74369561D01*
X104399958Y-74417180D01*
X104114243Y-74417180D01*
X104019005Y-74369561D01*
X103971386Y-74321942D01*
%TO.C,SW1*%
X108775666Y-109319961D02*
X108918523Y-109367580D01*
X109156619Y-109367580D01*
X109251857Y-109319961D01*
X109299476Y-109272342D01*
X109347095Y-109177104D01*
X109347095Y-109081866D01*
X109299476Y-108986628D01*
X109251857Y-108939009D01*
X109156619Y-108891390D01*
X108966142Y-108843771D01*
X108870904Y-108796152D01*
X108823285Y-108748533D01*
X108775666Y-108653295D01*
X108775666Y-108558057D01*
X108823285Y-108462819D01*
X108870904Y-108415200D01*
X108966142Y-108367580D01*
X109204238Y-108367580D01*
X109347095Y-108415200D01*
X109680428Y-108367580D02*
X109918523Y-109367580D01*
X110109000Y-108653295D01*
X110299476Y-109367580D01*
X110537571Y-108367580D01*
X111442333Y-109367580D02*
X110870904Y-109367580D01*
X111156619Y-109367580D02*
X111156619Y-108367580D01*
X111061380Y-108510438D01*
X110966142Y-108605676D01*
X110870904Y-108653295D01*
%TO.C,SW2*%
X93450041Y-103106053D02*
X93497660Y-102963196D01*
X93497660Y-102725100D01*
X93450041Y-102629862D01*
X93402422Y-102582243D01*
X93307184Y-102534624D01*
X93211946Y-102534624D01*
X93116708Y-102582243D01*
X93069089Y-102629862D01*
X93021470Y-102725100D01*
X92973851Y-102915577D01*
X92926232Y-103010815D01*
X92878613Y-103058434D01*
X92783375Y-103106053D01*
X92688137Y-103106053D01*
X92592899Y-103058434D01*
X92545280Y-103010815D01*
X92497660Y-102915577D01*
X92497660Y-102677481D01*
X92545280Y-102534624D01*
X92497660Y-102201291D02*
X93497660Y-101963196D01*
X92783375Y-101772720D01*
X93497660Y-101582243D01*
X92497660Y-101344148D01*
X92592899Y-101010815D02*
X92545280Y-100963196D01*
X92497660Y-100867958D01*
X92497660Y-100629862D01*
X92545280Y-100534624D01*
X92592899Y-100487005D01*
X92688137Y-100439386D01*
X92783375Y-100439386D01*
X92926232Y-100487005D01*
X93497660Y-101058434D01*
X93497660Y-100439386D01*
%TO.C,SW3*%
X92921721Y-91904653D02*
X92969340Y-91761796D01*
X92969340Y-91523700D01*
X92921721Y-91428462D01*
X92874102Y-91380843D01*
X92778864Y-91333224D01*
X92683626Y-91333224D01*
X92588388Y-91380843D01*
X92540769Y-91428462D01*
X92493150Y-91523700D01*
X92445531Y-91714177D01*
X92397912Y-91809415D01*
X92350293Y-91857034D01*
X92255055Y-91904653D01*
X92159817Y-91904653D01*
X92064579Y-91857034D01*
X92016960Y-91809415D01*
X91969340Y-91714177D01*
X91969340Y-91476081D01*
X92016960Y-91333224D01*
X91969340Y-90999891D02*
X92969340Y-90761796D01*
X92255055Y-90571320D01*
X92969340Y-90380843D01*
X91969340Y-90142748D01*
X91969340Y-89857034D02*
X91969340Y-89237986D01*
X92350293Y-89571320D01*
X92350293Y-89428462D01*
X92397912Y-89333224D01*
X92445531Y-89285605D01*
X92540769Y-89237986D01*
X92778864Y-89237986D01*
X92874102Y-89285605D01*
X92921721Y-89333224D01*
X92969340Y-89428462D01*
X92969340Y-89714177D01*
X92921721Y-89809415D01*
X92874102Y-89857034D01*
%TO.C,SW4*%
X93592281Y-80408613D02*
X93639900Y-80265756D01*
X93639900Y-80027660D01*
X93592281Y-79932422D01*
X93544662Y-79884803D01*
X93449424Y-79837184D01*
X93354186Y-79837184D01*
X93258948Y-79884803D01*
X93211329Y-79932422D01*
X93163710Y-80027660D01*
X93116091Y-80218137D01*
X93068472Y-80313375D01*
X93020853Y-80360994D01*
X92925615Y-80408613D01*
X92830377Y-80408613D01*
X92735139Y-80360994D01*
X92687520Y-80313375D01*
X92639900Y-80218137D01*
X92639900Y-79980041D01*
X92687520Y-79837184D01*
X92639900Y-79503851D02*
X93639900Y-79265756D01*
X92925615Y-79075280D01*
X93639900Y-78884803D01*
X92639900Y-78646708D01*
X92973234Y-77837184D02*
X93639900Y-77837184D01*
X92592281Y-78075280D02*
X93306567Y-78313375D01*
X93306567Y-77694327D01*
%TO.C,U3*%
X151231695Y-85929220D02*
X151231695Y-86738744D01*
X151279314Y-86833982D01*
X151326933Y-86881601D01*
X151422171Y-86929220D01*
X151612647Y-86929220D01*
X151707885Y-86881601D01*
X151755504Y-86833982D01*
X151803123Y-86738744D01*
X151803123Y-85929220D01*
X152184076Y-85929220D02*
X152803123Y-85929220D01*
X152469790Y-86310173D01*
X152612647Y-86310173D01*
X152707885Y-86357792D01*
X152755504Y-86405411D01*
X152803123Y-86500649D01*
X152803123Y-86738744D01*
X152755504Y-86833982D01*
X152707885Y-86881601D01*
X152612647Y-86929220D01*
X152326933Y-86929220D01*
X152231695Y-86881601D01*
X152184076Y-86833982D01*
%TO.C,U4*%
X121615295Y-51852580D02*
X121615295Y-52662104D01*
X121662914Y-52757342D01*
X121710533Y-52804961D01*
X121805771Y-52852580D01*
X121996247Y-52852580D01*
X122091485Y-52804961D01*
X122139104Y-52757342D01*
X122186723Y-52662104D01*
X122186723Y-51852580D01*
X123091485Y-52185914D02*
X123091485Y-52852580D01*
X122853390Y-51804961D02*
X122615295Y-52519247D01*
X123234342Y-52519247D01*
%TO.C,U5*%
X121899775Y-129795020D02*
X121899775Y-130604544D01*
X121947394Y-130699782D01*
X121995013Y-130747401D01*
X122090251Y-130795020D01*
X122280727Y-130795020D01*
X122375965Y-130747401D01*
X122423584Y-130699782D01*
X122471203Y-130604544D01*
X122471203Y-129795020D01*
X123423584Y-129795020D02*
X122947394Y-129795020D01*
X122899775Y-130271211D01*
X122947394Y-130223592D01*
X123042632Y-130175973D01*
X123280727Y-130175973D01*
X123375965Y-130223592D01*
X123423584Y-130271211D01*
X123471203Y-130366449D01*
X123471203Y-130604544D01*
X123423584Y-130699782D01*
X123375965Y-130747401D01*
X123280727Y-130795020D01*
X123042632Y-130795020D01*
X122947394Y-130747401D01*
X122899775Y-130699782D01*
%TO.C,U6*%
X206974535Y-115830100D02*
X206974535Y-116639624D01*
X207022154Y-116734862D01*
X207069773Y-116782481D01*
X207165011Y-116830100D01*
X207355487Y-116830100D01*
X207450725Y-116782481D01*
X207498344Y-116734862D01*
X207545963Y-116639624D01*
X207545963Y-115830100D01*
X208450725Y-115830100D02*
X208260249Y-115830100D01*
X208165011Y-115877720D01*
X208117392Y-115925339D01*
X208022154Y-116068196D01*
X207974535Y-116258672D01*
X207974535Y-116639624D01*
X208022154Y-116734862D01*
X208069773Y-116782481D01*
X208165011Y-116830100D01*
X208355487Y-116830100D01*
X208450725Y-116782481D01*
X208498344Y-116734862D01*
X208545963Y-116639624D01*
X208545963Y-116401529D01*
X208498344Y-116306291D01*
X208450725Y-116258672D01*
X208355487Y-116211053D01*
X208165011Y-116211053D01*
X208069773Y-116258672D01*
X208022154Y-116306291D01*
X207974535Y-116401529D01*
%TO.C,J4*%
X114434026Y-112878620D02*
X114434026Y-113592906D01*
X114386407Y-113735763D01*
X114291169Y-113831001D01*
X114148312Y-113878620D01*
X114053074Y-113878620D01*
X115338788Y-113211954D02*
X115338788Y-113878620D01*
X115100693Y-112831001D02*
X114862598Y-113545287D01*
X115481645Y-113545287D01*
%TO.C,J5*%
X161058380Y-104199333D02*
X161772666Y-104199333D01*
X161915523Y-104246952D01*
X162010761Y-104342190D01*
X162058380Y-104485047D01*
X162058380Y-104580285D01*
X161058380Y-103246952D02*
X161058380Y-103723142D01*
X161534571Y-103770761D01*
X161486952Y-103723142D01*
X161439333Y-103627904D01*
X161439333Y-103389809D01*
X161486952Y-103294571D01*
X161534571Y-103246952D01*
X161629809Y-103199333D01*
X161867904Y-103199333D01*
X161963142Y-103246952D01*
X162010761Y-103294571D01*
X162058380Y-103389809D01*
X162058380Y-103627904D01*
X162010761Y-103723142D01*
X161963142Y-103770761D01*
%TD*%
M02*
