%TF.GenerationSoftware,KiCad,Pcbnew,(5.1.10)-1*%
%TF.CreationDate,2021-12-09T17:48:02-06:00*%
%TF.ProjectId,Sigue_lineas,53696775-655f-46c6-996e-6561732e6b69,rev?*%
%TF.SameCoordinates,Original*%
%TF.FileFunction,Profile,NP*%
%FSLAX46Y46*%
G04 Gerber Fmt 4.6, Leading zero omitted, Abs format (unit mm)*
G04 Created by KiCad (PCBNEW (5.1.10)-1) date 2021-12-09 17:48:02*
%MOMM*%
%LPD*%
G01*
G04 APERTURE LIST*
%TA.AperFunction,Profile*%
%ADD10C,0.254000*%
%TD*%
G04 APERTURE END LIST*
D10*
X153418267Y-109003979D02*
X156357342Y-107486540D01*
X156357342Y-107486540D02*
X159546425Y-106552106D01*
X146189611Y-119453797D02*
X147157008Y-116373380D01*
X150842145Y-111046109D02*
X153418267Y-109003979D01*
X106541745Y-71914496D02*
X105228593Y-72299263D01*
X145862960Y-122657325D02*
X146189611Y-119453797D01*
X108812708Y-70448791D02*
X107751952Y-71289668D01*
X105228593Y-72299263D02*
X103862960Y-72429183D01*
X109683248Y-112139366D02*
X108812708Y-111114755D01*
X159546425Y-106552106D02*
X162862960Y-106236586D01*
X110728457Y-114576744D02*
X110330117Y-113308337D01*
X148727977Y-113534451D02*
X150842145Y-111046109D01*
X110862960Y-65667702D02*
X110728457Y-66986801D01*
X106541745Y-109649050D02*
X105228593Y-109264283D01*
X110330117Y-113308337D02*
X109683248Y-112139366D01*
X159546425Y-76943292D02*
X156357342Y-76008858D01*
X162862960Y-77258812D02*
X159546425Y-76943292D01*
X147157008Y-116373380D02*
X148727977Y-113534451D01*
X105228593Y-109264283D02*
X103862960Y-109134363D01*
X107751952Y-71289668D02*
X106541745Y-71914496D01*
X109683248Y-69424179D02*
X108812708Y-70448791D01*
X110330117Y-68255209D02*
X109683248Y-69424179D01*
X110728457Y-66986801D02*
X110330117Y-68255209D01*
X107751952Y-110273878D02*
X106541745Y-109649050D01*
X108812708Y-111114755D02*
X107751952Y-110273878D01*
X110862960Y-115895844D02*
X110728457Y-114576744D01*
X217492352Y-44309725D02*
X215005095Y-41382264D01*
X90959034Y-105246948D02*
X90862960Y-104304734D01*
X147157008Y-67122018D02*
X146189611Y-64041600D01*
X91243563Y-106152953D02*
X90959034Y-105246948D01*
X200766886Y-124565464D02*
X200862960Y-123623251D01*
X194689794Y-106971853D02*
X192813863Y-106422186D01*
X91705612Y-106987932D02*
X91243563Y-106152953D01*
X92327427Y-107719798D02*
X91705612Y-106987932D01*
X192813863Y-77073212D02*
X194689794Y-76523545D01*
X215005095Y-132453875D02*
X217492352Y-129526414D01*
X94887509Y-109041563D02*
X93949543Y-108766730D01*
X93085109Y-108320424D02*
X92327427Y-107719798D01*
X95862960Y-109134363D02*
X94887509Y-109041563D01*
X200101755Y-112199406D02*
X199177656Y-110529448D01*
X219340550Y-47649642D02*
X217492352Y-44309725D01*
X197776377Y-128085246D02*
X198640811Y-127638940D01*
X208516628Y-136641603D02*
X211974364Y-134856381D01*
X197776377Y-45750893D02*
X196838411Y-45476060D01*
X148727977Y-69960947D02*
X147157008Y-67122018D01*
X200670812Y-69483981D02*
X200862960Y-67599554D01*
X192813863Y-106422186D02*
X190862960Y-106236586D01*
X156357342Y-76008858D02*
X153418267Y-74491418D01*
X199177656Y-72965950D02*
X200101755Y-71295992D01*
X200670812Y-114011416D02*
X200101755Y-112199406D01*
X199398493Y-127038314D02*
X200020308Y-126306449D01*
X196418662Y-107864464D02*
X194689794Y-106971853D01*
X217492352Y-129526414D02*
X219340550Y-126186498D01*
X153418267Y-74491418D02*
X150842145Y-72449289D01*
X197934027Y-74429681D02*
X199177656Y-72965950D01*
X211974364Y-134856381D02*
X215005095Y-132453875D01*
X194689794Y-76523545D02*
X196418662Y-75630933D01*
X197934027Y-109065717D02*
X196418662Y-107864464D01*
X199177656Y-110529448D02*
X197934027Y-109065717D01*
X200020308Y-47529691D02*
X199398493Y-46797825D01*
X200482357Y-48364670D02*
X200020308Y-47529691D01*
X198640811Y-127638940D02*
X199398493Y-127038314D01*
X204764766Y-36095201D02*
X200862960Y-35724001D01*
X219340550Y-126186498D02*
X220478665Y-122562477D01*
X196838411Y-128360080D02*
X197776377Y-128085246D01*
X220478665Y-122562477D02*
X220862960Y-118793621D01*
X220862960Y-55042518D02*
X220478665Y-51273662D01*
X200020308Y-126306449D02*
X200482357Y-125471470D01*
X215005095Y-41382264D02*
X211974364Y-38979758D01*
X200482357Y-125471470D02*
X200766886Y-124565464D01*
X211974364Y-38979758D02*
X208516628Y-37194536D01*
X200862960Y-138112138D02*
X204764766Y-137740938D01*
X196418662Y-75630933D02*
X197934027Y-74429681D01*
X198640811Y-46197199D02*
X197776377Y-45750893D01*
X94887509Y-72521983D02*
X93949543Y-72796816D01*
X208516628Y-37194536D02*
X204764766Y-36095201D01*
X95862960Y-72429183D02*
X94887509Y-72521983D01*
X200101755Y-71295992D02*
X200670812Y-69483981D01*
X190862960Y-77258812D02*
X192813863Y-77073212D01*
X200862960Y-115895844D02*
X200670812Y-114011416D01*
X220478665Y-51273662D02*
X219340550Y-47649642D01*
X196838411Y-45476060D02*
X195862960Y-45383260D01*
X200766886Y-49270675D02*
X200482357Y-48364670D01*
X146189611Y-64041600D02*
X145862960Y-60838073D01*
X199398493Y-46797825D02*
X198640811Y-46197199D01*
X150842145Y-72449289D02*
X148727977Y-69960947D01*
X93949543Y-108766730D02*
X93085109Y-108320424D01*
X204764766Y-137740938D02*
X208516628Y-136641603D01*
X200862960Y-50212889D02*
X200766886Y-49270675D01*
X195862960Y-128452880D02*
X196838411Y-128360080D01*
X115862960Y-140043990D02*
X114887509Y-139951190D01*
X112327427Y-44865974D02*
X113085109Y-44265347D01*
X193862960Y-35724001D02*
X200862960Y-35724001D01*
X110862960Y-115895844D02*
X110862960Y-135214360D01*
X113085109Y-139230050D02*
X112327427Y-138629424D01*
X145020309Y-137897559D02*
X145482358Y-137062580D01*
X145020309Y-45597839D02*
X144398494Y-44865974D01*
X111243563Y-46432818D02*
X111705612Y-45597839D01*
X192714909Y-35944582D02*
X193277689Y-35779681D01*
X162862960Y-106236586D02*
X190862960Y-106236586D01*
X193862960Y-45383260D02*
X195862960Y-45383260D01*
X145482358Y-137062580D02*
X145766887Y-136156574D01*
X142776378Y-139676356D02*
X143640812Y-139230050D01*
X114887509Y-43544208D02*
X115862960Y-43451408D01*
X191368551Y-37011860D02*
X191741639Y-36572741D01*
X143640812Y-139230050D02*
X144398494Y-138629424D01*
X141838412Y-139951190D02*
X142776378Y-139676356D01*
X90862960Y-77258812D02*
X90862960Y-104304734D01*
X111243563Y-137062580D02*
X110959034Y-136156574D01*
X113085109Y-44265347D02*
X113949543Y-43819042D01*
X111705612Y-137897559D02*
X111243563Y-137062580D01*
X143640812Y-44265347D02*
X142776378Y-43819042D01*
X200862960Y-50212889D02*
X200862960Y-67599554D01*
X220862960Y-55042518D02*
X220862960Y-118793621D01*
X142776378Y-43819042D02*
X141838412Y-43544208D01*
X95862960Y-109134363D02*
X103862960Y-109134363D01*
X95862960Y-72429183D02*
X103862960Y-72429183D01*
X110959034Y-136156574D02*
X110862960Y-135214360D01*
X110862960Y-48281037D02*
X110959034Y-47338823D01*
X162862960Y-77258812D02*
X190862960Y-77258812D01*
X145862960Y-48281037D02*
X145862960Y-60838073D01*
X113949543Y-43819042D02*
X114887509Y-43544208D01*
X114887509Y-139951190D02*
X113949543Y-139676356D01*
X144398494Y-138629424D02*
X145020309Y-137897559D01*
X110959034Y-47338823D02*
X111243563Y-46432818D01*
X145766887Y-47338823D02*
X145482358Y-46432818D01*
X141838412Y-43544208D02*
X140862960Y-43451408D01*
X192196249Y-36212365D02*
X192714909Y-35944582D01*
X145862960Y-122657325D02*
X145862960Y-135214360D01*
X115862960Y-140043990D02*
X140862960Y-140043990D01*
X113949543Y-139676356D02*
X113085109Y-139230050D01*
X140862960Y-140043990D02*
X141838412Y-139951190D01*
X144398494Y-44865974D02*
X143640812Y-44265347D01*
X190920604Y-38056450D02*
X191091321Y-37512847D01*
X145862960Y-48281037D02*
X145766887Y-47338823D01*
X191741639Y-36572741D02*
X192196249Y-36212365D01*
X112327427Y-138629424D02*
X111705612Y-137897559D01*
X145766887Y-136156574D02*
X145862960Y-135214360D01*
X191091321Y-37512847D02*
X191368551Y-37011860D01*
X110862960Y-48281037D02*
X110862960Y-65667702D01*
X111705612Y-45597839D02*
X112327427Y-44865974D01*
X115862960Y-43451408D02*
X140862960Y-43451408D01*
X145482358Y-46432818D02*
X145020309Y-45597839D01*
X193277689Y-35779681D02*
X193862960Y-35724001D01*
X190862960Y-131350657D02*
X190862960Y-135214360D01*
X190862960Y-38621779D02*
X190862960Y-42485482D01*
X193862960Y-138112138D02*
X200862960Y-138112138D01*
X191368551Y-44095401D02*
X191741639Y-44534520D01*
X191091321Y-130241726D02*
X191368551Y-129740738D01*
X191091321Y-136323292D02*
X190920604Y-135779689D01*
X190862960Y-42485482D02*
X190920604Y-43050810D01*
X191368551Y-129740738D02*
X191741639Y-129301619D01*
X191091321Y-43594414D02*
X191368551Y-44095401D01*
X190920604Y-43050810D02*
X191091321Y-43594414D01*
X191741639Y-137263399D02*
X191368551Y-136824279D01*
X193277689Y-128508560D02*
X193862960Y-128452880D01*
X192714909Y-128673460D02*
X193277689Y-128508560D01*
X191368551Y-136824279D02*
X191091321Y-136323292D01*
X91243563Y-75410593D02*
X90959034Y-76316598D01*
X91705612Y-74575614D02*
X91243563Y-75410593D01*
X192196249Y-128941243D02*
X192714909Y-128673460D01*
X191741639Y-129301619D02*
X192196249Y-128941243D01*
X92327427Y-73843748D02*
X91705612Y-74575614D01*
X190920604Y-130785329D02*
X191091321Y-130241726D01*
X192714909Y-137891558D02*
X192196249Y-137623774D01*
X190920604Y-135779689D02*
X190862960Y-135214360D01*
X90959034Y-76316598D02*
X90862960Y-77258812D01*
X93949543Y-72796816D02*
X93085109Y-73243122D01*
X193862960Y-138112138D02*
X193277689Y-138056458D01*
X191741639Y-44534520D02*
X192196249Y-44894896D01*
X190862960Y-38621779D02*
X190920604Y-38056450D01*
X193277689Y-45327580D02*
X193862960Y-45383260D01*
X190862960Y-131350657D02*
X190920604Y-130785329D01*
X192714909Y-45162679D02*
X193277689Y-45327580D01*
X192196249Y-44894896D02*
X192714909Y-45162679D01*
X192196249Y-137623774D02*
X191741639Y-137263399D01*
X193277689Y-138056458D02*
X192714909Y-137891558D01*
X93085109Y-73243122D02*
X92327427Y-73843748D01*
X200862960Y-123623251D02*
X200862960Y-115895844D01*
X193862960Y-128452880D02*
X195862960Y-128452880D01*
M02*
