%TF.GenerationSoftware,KiCad,Pcbnew,(5.1.10)-1*%
%TF.CreationDate,2021-12-09T17:48:02-06:00*%
%TF.ProjectId,Sigue_lineas,53696775-655f-46c6-996e-6561732e6b69,rev?*%
%TF.SameCoordinates,Original*%
%TF.FileFunction,Soldermask,Bot*%
%TF.FilePolarity,Negative*%
%FSLAX46Y46*%
G04 Gerber Fmt 4.6, Leading zero omitted, Abs format (unit mm)*
G04 Created by KiCad (PCBNEW (5.1.10)-1) date 2021-12-09 17:48:02*
%MOMM*%
%LPD*%
G01*
G04 APERTURE LIST*
%ADD10R,1.600000X1.600000*%
%ADD11O,1.600000X1.600000*%
%ADD12C,2.000000*%
%ADD13R,2.000000X2.000000*%
%ADD14O,1.300000X1.300000*%
%ADD15R,1.300000X1.300000*%
%ADD16C,2.700000*%
%ADD17C,1.400000*%
%ADD18O,1.400000X1.400000*%
%ADD19R,1.400000X1.400000*%
%ADD20O,1.000000X0.700000*%
%ADD21R,1.000000X1.000000*%
%ADD22C,1.000000*%
%ADD23R,1.500000X1.000000*%
%ADD24O,2.000000X2.000000*%
%ADD25C,3.000000*%
%ADD26C,1.500000*%
%ADD27R,3.000000X3.000000*%
%ADD28R,1.700000X1.700000*%
%ADD29O,1.700000X1.700000*%
G04 APERTURE END LIST*
D10*
%TO.C,A1*%
X160419000Y-98151900D03*
D11*
X193439000Y-82911900D03*
X162959000Y-98151900D03*
X190899000Y-82911900D03*
X165499000Y-98151900D03*
X188359000Y-82911900D03*
X168039000Y-98151900D03*
X185819000Y-82911900D03*
X170579000Y-98151900D03*
X183279000Y-82911900D03*
X173119000Y-98151900D03*
X180739000Y-82911900D03*
X175659000Y-98151900D03*
X178199000Y-82911900D03*
X178199000Y-98151900D03*
X175659000Y-82911900D03*
X180739000Y-98151900D03*
X173119000Y-82911900D03*
X183279000Y-98151900D03*
X170579000Y-82911900D03*
X185819000Y-98151900D03*
X168039000Y-82911900D03*
X188359000Y-98151900D03*
X165499000Y-82911900D03*
X190899000Y-98151900D03*
X162959000Y-82911900D03*
X193439000Y-98151900D03*
X160419000Y-82911900D03*
X195979000Y-98151900D03*
X195979000Y-82911900D03*
%TD*%
D12*
%TO.C,BZ1*%
X119370000Y-82029300D03*
D13*
X109370000Y-82029300D03*
%TD*%
D14*
%TO.C,J1*%
X115199280Y-92410300D03*
D15*
X116888380Y-92382360D03*
%TD*%
%TO.C,J2*%
X109187380Y-91927660D03*
D14*
X107498280Y-91955600D03*
%TD*%
D16*
%TO.C,LCD1*%
X144153000Y-104770200D03*
X125153000Y-104770200D03*
D12*
X143779100Y-93050200D03*
D16*
X125153000Y-78770200D03*
X144153000Y-78770200D03*
D12*
X143779100Y-90510200D03*
X143779100Y-95590200D03*
D13*
X143779100Y-87970200D03*
%TD*%
D17*
%TO.C,R1*%
X103335000Y-98976200D03*
D18*
X103335000Y-104056200D03*
%TD*%
%TO.C,R2*%
X103660000Y-92090200D03*
D17*
X103660000Y-87010200D03*
%TD*%
%TO.C,R3*%
X103708000Y-75897700D03*
D18*
X103708000Y-80977700D03*
%TD*%
D19*
%TO.C,SW1*%
X112873000Y-107119000D03*
D17*
X110373000Y-107119000D03*
X107873000Y-107119000D03*
X112873000Y-103819000D03*
X110373000Y-103819000D03*
X107873000Y-103819000D03*
%TD*%
D12*
%TO.C,SW2*%
X95456600Y-98602800D03*
X99956600Y-98602800D03*
X95456600Y-105102800D03*
X99956600Y-105102800D03*
%TD*%
%TO.C,SW3*%
X95256000Y-87078800D03*
X99756000Y-87078800D03*
X95256000Y-93578800D03*
X99756000Y-93578800D03*
%TD*%
%TO.C,SW4*%
X99875300Y-82263100D03*
X95375300Y-82263100D03*
X99875300Y-75763100D03*
X95375300Y-75763100D03*
%TD*%
D20*
%TO.C,U2*%
X133971000Y-86908800D03*
X133971000Y-88108800D03*
X137371000Y-88108800D03*
X137371000Y-86908800D03*
D21*
X133971000Y-93108800D03*
X133971000Y-91808800D03*
X137371000Y-93108800D03*
X137371000Y-91808800D03*
%TD*%
D22*
%TO.C,U3*%
X153919000Y-96949400D03*
X153919000Y-94549400D03*
X153919000Y-95749400D03*
X153919000Y-93349400D03*
X153919000Y-92149400D03*
X153919000Y-90949400D03*
X153919000Y-89749400D03*
D23*
X153919000Y-88549400D03*
D22*
X150219000Y-96949400D03*
X150219000Y-95749400D03*
X150219000Y-94549400D03*
X150219000Y-93349400D03*
X150219000Y-92149400D03*
X150219000Y-90949400D03*
X150219000Y-89749400D03*
D23*
X150219000Y-88549400D03*
%TD*%
D24*
%TO.C,U4*%
X130476000Y-57602100D03*
X132676000Y-57602100D03*
D12*
X123611800Y-57548760D03*
D24*
X125876000Y-57581780D03*
X128076000Y-57602100D03*
X134936000Y-57602100D03*
D25*
X122443400Y-48646300D03*
X135852060Y-48646300D03*
%TD*%
%TO.C,U5*%
X123141940Y-134030000D03*
X136550600Y-134030000D03*
D24*
X124058000Y-125074200D03*
X130918000Y-125074200D03*
X133118000Y-125094520D03*
D12*
X135382200Y-125127540D03*
D24*
X126318000Y-125074200D03*
X128518000Y-125074200D03*
%TD*%
D26*
%TO.C,U6*%
X208132000Y-90453000D03*
X208132000Y-87853000D03*
X208132000Y-85253000D03*
X208132000Y-82653000D03*
X208132000Y-80053000D03*
X208132000Y-77453000D03*
X208132000Y-93053000D03*
X208132000Y-95653000D03*
X208132000Y-98253000D03*
X208132000Y-100853000D03*
X208132000Y-103453000D03*
G36*
G01*
X208757000Y-68703000D02*
X207507000Y-68703000D01*
G75*
G02*
X206882000Y-68078000I0J625000D01*
G01*
X206882000Y-66828000D01*
G75*
G02*
X207507000Y-66203000I625000J0D01*
G01*
X208757000Y-66203000D01*
G75*
G02*
X209382000Y-66828000I0J-625000D01*
G01*
X209382000Y-68078000D01*
G75*
G02*
X208757000Y-68703000I-625000J0D01*
G01*
G37*
G36*
G01*
X208757000Y-114703000D02*
X207507000Y-114703000D01*
G75*
G02*
X206882000Y-114078000I0J625000D01*
G01*
X206882000Y-112828000D01*
G75*
G02*
X207507000Y-112203000I625000J0D01*
G01*
X208757000Y-112203000D01*
G75*
G02*
X209382000Y-112828000I0J-625000D01*
G01*
X209382000Y-114078000D01*
G75*
G02*
X208757000Y-114703000I-625000J0D01*
G01*
G37*
%TD*%
D25*
%TO.C,J4*%
X114830540Y-117368640D03*
D27*
X119082500Y-117394040D03*
%TD*%
D28*
%TO.C,J5*%
X158836000Y-103866000D03*
D29*
X156296000Y-103866000D03*
X153756000Y-103866000D03*
%TD*%
M02*
