%TF.GenerationSoftware,KiCad,Pcbnew,(5.1.10)-1*%
%TF.CreationDate,2021-12-09T17:47:55-06:00*%
%TF.ProjectId,Sigue_lineas,53696775-655f-46c6-996e-6561732e6b69,rev?*%
%TF.SameCoordinates,Original*%
%TF.FileFunction,Copper,L2,Bot*%
%TF.FilePolarity,Positive*%
%FSLAX46Y46*%
G04 Gerber Fmt 4.6, Leading zero omitted, Abs format (unit mm)*
G04 Created by KiCad (PCBNEW (5.1.10)-1) date 2021-12-09 17:47:55*
%MOMM*%
%LPD*%
G01*
G04 APERTURE LIST*
%TA.AperFunction,ComponentPad*%
%ADD10R,1.600000X1.600000*%
%TD*%
%TA.AperFunction,ComponentPad*%
%ADD11O,1.600000X1.600000*%
%TD*%
%TA.AperFunction,ComponentPad*%
%ADD12C,2.000000*%
%TD*%
%TA.AperFunction,ComponentPad*%
%ADD13R,2.000000X2.000000*%
%TD*%
%TA.AperFunction,ComponentPad*%
%ADD14O,1.300000X1.300000*%
%TD*%
%TA.AperFunction,ComponentPad*%
%ADD15R,1.300000X1.300000*%
%TD*%
%TA.AperFunction,ComponentPad*%
%ADD16C,1.400000*%
%TD*%
%TA.AperFunction,ComponentPad*%
%ADD17O,1.400000X1.400000*%
%TD*%
%TA.AperFunction,ComponentPad*%
%ADD18R,1.400000X1.400000*%
%TD*%
%TA.AperFunction,ComponentPad*%
%ADD19O,1.000000X0.700000*%
%TD*%
%TA.AperFunction,ComponentPad*%
%ADD20R,1.000000X1.000000*%
%TD*%
%TA.AperFunction,ComponentPad*%
%ADD21C,1.000000*%
%TD*%
%TA.AperFunction,ComponentPad*%
%ADD22R,1.500000X1.000000*%
%TD*%
%TA.AperFunction,ComponentPad*%
%ADD23O,2.000000X2.000000*%
%TD*%
%TA.AperFunction,ComponentPad*%
%ADD24C,3.000000*%
%TD*%
%TA.AperFunction,ComponentPad*%
%ADD25C,1.500000*%
%TD*%
%TA.AperFunction,ComponentPad*%
%ADD26R,3.000000X3.000000*%
%TD*%
%TA.AperFunction,ComponentPad*%
%ADD27R,1.700000X1.700000*%
%TD*%
%TA.AperFunction,ComponentPad*%
%ADD28O,1.700000X1.700000*%
%TD*%
%TA.AperFunction,ViaPad*%
%ADD29C,0.800000*%
%TD*%
%TA.AperFunction,Conductor*%
%ADD30C,0.250000*%
%TD*%
%TA.AperFunction,Conductor*%
%ADD31C,0.400000*%
%TD*%
G04 APERTURE END LIST*
D10*
%TO.P,A1,1*%
%TO.N,SERIAL-TX*%
X160419000Y-98151900D03*
D11*
%TO.P,A1,17*%
%TO.N,Net-(A1-Pad17)*%
X193439000Y-82911900D03*
%TO.P,A1,2*%
%TO.N,SERIAL-RX*%
X162959000Y-98151900D03*
%TO.P,A1,18*%
%TO.N,Net-(A1-Pad18)*%
X190899000Y-82911900D03*
%TO.P,A1,3*%
%TO.N,Net-(A1-Pad3)*%
X165499000Y-98151900D03*
%TO.P,A1,19*%
%TO.N,M2-ENCDR-B*%
X188359000Y-82911900D03*
%TO.P,A1,4*%
%TO.N,GND*%
X168039000Y-98151900D03*
%TO.P,A1,20*%
%TO.N,M2-ENCDR-A*%
X185819000Y-82911900D03*
%TO.P,A1,5*%
%TO.N,QTR-1*%
X170579000Y-98151900D03*
%TO.P,A1,21*%
%TO.N,M1-ENCDR-B*%
X183279000Y-82911900D03*
%TO.P,A1,6*%
%TO.N,MOTOR-2A*%
X173119000Y-98151900D03*
%TO.P,A1,22*%
%TO.N,M1-ENCDR-A*%
X180739000Y-82911900D03*
%TO.P,A1,7*%
%TO.N,IR-LED*%
X175659000Y-98151900D03*
%TO.P,A1,23*%
%TO.N,OLED-SDA*%
X178199000Y-82911900D03*
%TO.P,A1,8*%
%TO.N,MOTOR-1A*%
X178199000Y-98151900D03*
%TO.P,A1,24*%
%TO.N,OLED-SCL*%
X175659000Y-82911900D03*
%TO.P,A1,9*%
%TO.N,MOTOR-1B*%
X180739000Y-98151900D03*
%TO.P,A1,25*%
%TO.N,QTR-8*%
X173119000Y-82911900D03*
%TO.P,A1,10*%
%TO.N,QTR-2*%
X183279000Y-98151900D03*
%TO.P,A1,26*%
%TO.N,BUTTON*%
X170579000Y-82911900D03*
%TO.P,A1,11*%
%TO.N,QTR-3*%
X185819000Y-98151900D03*
%TO.P,A1,27*%
%TO.N,+5V*%
X168039000Y-82911900D03*
%TO.P,A1,12*%
%TO.N,QTR-4*%
X188359000Y-98151900D03*
%TO.P,A1,28*%
%TO.N,Net-(A1-Pad28)*%
X165499000Y-82911900D03*
%TO.P,A1,13*%
%TO.N,QTR-5*%
X190899000Y-98151900D03*
%TO.P,A1,29*%
%TO.N,GND*%
X162959000Y-82911900D03*
%TO.P,A1,14*%
%TO.N,MOTOR-2B*%
X193439000Y-98151900D03*
%TO.P,A1,30*%
%TO.N,Net-(A1-Pad30)*%
X160419000Y-82911900D03*
%TO.P,A1,15*%
%TO.N,QTR-6*%
X195979000Y-98151900D03*
%TO.P,A1,16*%
%TO.N,QTR-7*%
X195979000Y-82911900D03*
%TD*%
D12*
%TO.P,BZ1,2*%
%TO.N,GND*%
X119370000Y-82029300D03*
D13*
%TO.P,BZ1,1*%
%TO.N,Net-(BZ1-Pad1)*%
X109370000Y-82029300D03*
%TD*%
D14*
%TO.P,J1,2*%
%TO.N,Net-(BZ1-Pad1)*%
X115199280Y-92410300D03*
D15*
%TO.P,J1,1*%
%TO.N,SERIAL-RX*%
X116888380Y-92382360D03*
%TD*%
%TO.P,J2,1*%
%TO.N,BUTTON*%
X109187380Y-91927660D03*
D14*
%TO.P,J2,2*%
%TO.N,Net-(J2-Pad2)*%
X107498280Y-91955600D03*
%TD*%
D12*
%TO.P,LCD1,3*%
%TO.N,OLED-SCL*%
X143779100Y-93050200D03*
%TO.P,LCD1,2*%
%TO.N,+5V*%
X143779100Y-90510200D03*
%TO.P,LCD1,4*%
%TO.N,OLED-SDA*%
X143779100Y-95590200D03*
D13*
%TO.P,LCD1,1*%
%TO.N,GND*%
X143779100Y-87970200D03*
%TD*%
D16*
%TO.P,R1,1*%
%TO.N,Net-(J2-Pad2)*%
X103335000Y-98976200D03*
D17*
%TO.P,R1,2*%
%TO.N,+5V*%
X103335000Y-104056200D03*
%TD*%
%TO.P,R2,2*%
%TO.N,Net-(J2-Pad2)*%
X103660000Y-92090200D03*
D16*
%TO.P,R2,1*%
%TO.N,Net-(R2-Pad1)*%
X103660000Y-87010200D03*
%TD*%
%TO.P,R3,1*%
%TO.N,Net-(R3-Pad1)*%
X103708000Y-75897700D03*
D17*
%TO.P,R3,2*%
%TO.N,Net-(R2-Pad1)*%
X103708000Y-80977700D03*
%TD*%
D18*
%TO.P,SW1,1*%
%TO.N,GND*%
X112873000Y-107119000D03*
D16*
%TO.P,SW1,2*%
%TO.N,-BATT*%
X110373000Y-107119000D03*
%TO.P,SW1,3*%
%TO.N,Net-(SW1-Pad3)*%
X107873000Y-107119000D03*
%TO.P,SW1,4*%
%TO.N,+12V*%
X112873000Y-103819000D03*
%TO.P,SW1,5*%
%TO.N,+BATT*%
X110373000Y-103819000D03*
%TO.P,SW1,6*%
%TO.N,Net-(SW1-Pad6)*%
X107873000Y-103819000D03*
%TD*%
D12*
%TO.P,SW2,2*%
%TO.N,GND*%
X95456600Y-98602800D03*
%TO.P,SW2,1*%
%TO.N,Net-(J2-Pad2)*%
X99956600Y-98602800D03*
%TO.P,SW2,2*%
%TO.N,GND*%
X95456600Y-105102800D03*
%TO.P,SW2,1*%
%TO.N,Net-(J2-Pad2)*%
X99956600Y-105102800D03*
%TD*%
%TO.P,SW3,2*%
%TO.N,GND*%
X95256000Y-87078800D03*
%TO.P,SW3,1*%
%TO.N,Net-(R2-Pad1)*%
X99756000Y-87078800D03*
%TO.P,SW3,2*%
%TO.N,GND*%
X95256000Y-93578800D03*
%TO.P,SW3,1*%
%TO.N,Net-(R2-Pad1)*%
X99756000Y-93578800D03*
%TD*%
%TO.P,SW4,1*%
%TO.N,Net-(R3-Pad1)*%
X99875300Y-82263100D03*
%TO.P,SW4,2*%
%TO.N,GND*%
X95375300Y-82263100D03*
%TO.P,SW4,1*%
%TO.N,Net-(R3-Pad1)*%
X99875300Y-75763100D03*
%TO.P,SW4,2*%
%TO.N,GND*%
X95375300Y-75763100D03*
%TD*%
D19*
%TO.P,U2,3*%
%TO.N,+5V*%
X133971000Y-86908800D03*
X133971000Y-88108800D03*
%TO.P,U2,2*%
%TO.N,+12V*%
X137371000Y-88108800D03*
X137371000Y-86908800D03*
D20*
%TO.P,U2,4*%
%TO.N,GND*%
X133971000Y-93108800D03*
X133971000Y-91808800D03*
%TO.P,U2,1*%
X137371000Y-93108800D03*
X137371000Y-91808800D03*
%TD*%
D21*
%TO.P,U3,23*%
%TO.N,+5V*%
X153919000Y-96949400D03*
%TO.P,U3,21*%
%TO.N,MOTOR-1A*%
X153919000Y-94549400D03*
%TO.P,U3,22*%
%TO.N,MOTOR-1B*%
X153919000Y-95749400D03*
%TO.P,U3,19*%
%TO.N,MOTOR-EN*%
X153919000Y-93349400D03*
%TO.P,U3,17*%
%TO.N,MOTOR-2A*%
X153919000Y-92149400D03*
%TO.P,U3,16*%
%TO.N,MOTOR-2B*%
X153919000Y-90949400D03*
%TO.P,U3,15*%
%TO.N,+5V*%
X153919000Y-89749400D03*
D22*
%TO.P,U3,18*%
%TO.N,GND*%
X153919000Y-88549400D03*
D21*
%TO.P,U3,24*%
%TO.N,+12V*%
X150219000Y-96949400D03*
%TO.P,U3,20*%
%TO.N,+5V*%
X150219000Y-95749400D03*
%TO.P,U3,3*%
%TO.N,GND*%
X150219000Y-94549400D03*
%TO.P,U3,1*%
%TO.N,Net-(U3-Pad1)*%
X150219000Y-93349400D03*
%TO.P,U3,5*%
%TO.N,Net-(U3-Pad5)*%
X150219000Y-92149400D03*
%TO.P,U3,11*%
%TO.N,Net-(U3-Pad11)*%
X150219000Y-90949400D03*
%TO.P,U3,7*%
%TO.N,Net-(U3-Pad7)*%
X150219000Y-89749400D03*
D22*
%TO.P,U3,9*%
%TO.N,GND*%
X150219000Y-88549400D03*
%TD*%
D23*
%TO.P,U4,4*%
%TO.N,M1-ENCDR-B*%
X130476000Y-57602100D03*
%TO.P,U4,5*%
%TO.N,GND*%
X132676000Y-57602100D03*
D12*
%TO.P,U4,1*%
%TO.N,Net-(U3-Pad1)*%
X123611800Y-57548760D03*
D23*
%TO.P,U4,2*%
%TO.N,+5V*%
X125876000Y-57581780D03*
%TO.P,U4,3*%
%TO.N,M1-ENCDR-A*%
X128076000Y-57602100D03*
%TO.P,U4,6*%
%TO.N,Net-(U3-Pad5)*%
X134936000Y-57602100D03*
D24*
%TO.P,U4,*%
%TO.N,*%
X122443400Y-48646300D03*
X135852060Y-48646300D03*
%TD*%
%TO.P,U5,*%
%TO.N,*%
X123141940Y-134030000D03*
X136550600Y-134030000D03*
D23*
%TO.P,U5,6*%
%TO.N,Net-(U3-Pad7)*%
X124058000Y-125074200D03*
%TO.P,U5,3*%
%TO.N,M2-ENCDR-A*%
X130918000Y-125074200D03*
%TO.P,U5,2*%
%TO.N,+5V*%
X133118000Y-125094520D03*
D12*
%TO.P,U5,1*%
%TO.N,Net-(U3-Pad11)*%
X135382200Y-125127540D03*
D23*
%TO.P,U5,5*%
%TO.N,GND*%
X126318000Y-125074200D03*
%TO.P,U5,4*%
%TO.N,M2-ENCDR-B*%
X128518000Y-125074200D03*
%TD*%
D25*
%TO.P,U6,6*%
%TO.N,QTR-6*%
X208132000Y-90453000D03*
%TO.P,U6,5*%
%TO.N,QTR-5*%
X208132000Y-87853000D03*
%TO.P,U6,4*%
%TO.N,QTR-4*%
X208132000Y-85253000D03*
%TO.P,U6,3*%
%TO.N,QTR-3*%
X208132000Y-82653000D03*
%TO.P,U6,2*%
%TO.N,QTR-2*%
X208132000Y-80053000D03*
%TO.P,U6,1*%
%TO.N,QTR-1*%
X208132000Y-77453000D03*
%TO.P,U6,7*%
%TO.N,QTR-7*%
X208132000Y-93053000D03*
%TO.P,U6,8*%
%TO.N,QTR-8*%
X208132000Y-95653000D03*
%TO.P,U6,16*%
%TO.N,IR_LED*%
X208132000Y-98253000D03*
%TO.P,U6,18*%
%TO.N,+5V*%
X208132000Y-100853000D03*
%TO.P,U6,19*%
%TO.N,GND*%
X208132000Y-103453000D03*
%TO.P,U6,*%
%TO.N,*%
%TA.AperFunction,ComponentPad*%
G36*
G01*
X208757000Y-68703000D02*
X207507000Y-68703000D01*
G75*
G02*
X206882000Y-68078000I0J625000D01*
G01*
X206882000Y-66828000D01*
G75*
G02*
X207507000Y-66203000I625000J0D01*
G01*
X208757000Y-66203000D01*
G75*
G02*
X209382000Y-66828000I0J-625000D01*
G01*
X209382000Y-68078000D01*
G75*
G02*
X208757000Y-68703000I-625000J0D01*
G01*
G37*
%TD.AperFunction*%
%TA.AperFunction,ComponentPad*%
G36*
G01*
X208757000Y-114703000D02*
X207507000Y-114703000D01*
G75*
G02*
X206882000Y-114078000I0J625000D01*
G01*
X206882000Y-112828000D01*
G75*
G02*
X207507000Y-112203000I625000J0D01*
G01*
X208757000Y-112203000D01*
G75*
G02*
X209382000Y-112828000I0J-625000D01*
G01*
X209382000Y-114078000D01*
G75*
G02*
X208757000Y-114703000I-625000J0D01*
G01*
G37*
%TD.AperFunction*%
%TD*%
D24*
%TO.P,J4,1*%
%TO.N,-BATT*%
X114830540Y-117368640D03*
D26*
%TO.P,J4,2*%
%TO.N,+BATT*%
X119082500Y-117394040D03*
%TD*%
D27*
%TO.P,J5,1*%
%TO.N,SERIAL-TX*%
X158836000Y-103866000D03*
D28*
%TO.P,J5,2*%
%TO.N,MOTOR-EN*%
X156296000Y-103866000D03*
%TO.P,J5,3*%
%TO.N,+5V*%
X153756000Y-103866000D03*
%TD*%
D29*
%TO.N,SERIAL-RX*%
X123378100Y-98872100D03*
%TO.N,M2-ENCDR-B*%
X132844500Y-85039500D03*
X155963500Y-84111300D03*
%TO.N,OLED-SDA*%
X167759500Y-96170600D03*
%TO.N,OLED-SCL*%
X164006500Y-86902400D03*
%TO.N,MOTOR-1B*%
X176282700Y-96295100D03*
%TO.N,Net-(U3-Pad1)*%
X133736100Y-73219400D03*
%TD*%
D30*
%TO.N,SERIAL-RX*%
X118163700Y-93657700D02*
X123378100Y-98872100D01*
X118163700Y-93657700D02*
X117442260Y-93657700D01*
X116888380Y-93103820D02*
X116888380Y-92382360D01*
X117442260Y-93657700D02*
X116888380Y-93103820D01*
%TO.N,M2-ENCDR-B*%
X158626200Y-81448600D02*
X186895700Y-81448600D01*
X186895700Y-81448600D02*
X188359000Y-82911900D01*
X155963500Y-84111300D02*
X158626200Y-81448600D01*
X128518000Y-103668100D02*
X135096400Y-97089700D01*
X128518000Y-125074200D02*
X128518000Y-103668100D01*
X135096400Y-97089700D02*
X135096400Y-91005700D01*
X134445100Y-90683400D02*
X132844500Y-89082800D01*
X132844500Y-89082800D02*
X132844500Y-85039500D01*
X134774100Y-90683400D02*
X134445100Y-90683400D01*
X135096400Y-91005700D02*
X134774100Y-90683400D01*
%TO.N,GND*%
X143779100Y-87970200D02*
X143779100Y-86344900D01*
X143779100Y-86344900D02*
X132676000Y-75241800D01*
X132676000Y-75241800D02*
X132676000Y-57602100D01*
X150219000Y-94549400D02*
X149809400Y-94549400D01*
X149809400Y-94549400D02*
X146272300Y-91012300D01*
X146272300Y-91012300D02*
X146272300Y-90463400D01*
X146272300Y-90463400D02*
X143779100Y-87970200D01*
X168039000Y-98151900D02*
X158591700Y-88704500D01*
X158591700Y-88704500D02*
X158436500Y-88549400D01*
X158436500Y-88549400D02*
X153919000Y-88549400D01*
X158591700Y-88704500D02*
X162959000Y-84337200D01*
X162959000Y-82911900D02*
X162959000Y-84337200D01*
X133971000Y-91808800D02*
X129149500Y-91808800D01*
X129149500Y-91808800D02*
X119370000Y-82029300D01*
X133971000Y-91808800D02*
X133971000Y-93108800D01*
X95456600Y-105102800D02*
X95456600Y-98602800D01*
X95256000Y-87078800D02*
X95256000Y-93578800D01*
X95256000Y-93578800D02*
X95456600Y-93779400D01*
X95456600Y-93779400D02*
X95456600Y-98602800D01*
%TO.N,QTR-1*%
X208132000Y-77453000D02*
X198338300Y-87246700D01*
X198338300Y-87246700D02*
X181484200Y-87246700D01*
X181484200Y-87246700D02*
X170579000Y-98151900D01*
%TO.N,MOTOR-2A*%
X153919000Y-92149400D02*
X154407800Y-92149400D01*
X154407800Y-92149400D02*
X157046400Y-94788000D01*
X157046400Y-94788000D02*
X157046400Y-97319800D01*
X157046400Y-97319800D02*
X159311600Y-99585000D01*
X159311600Y-99585000D02*
X171685900Y-99585000D01*
X171685900Y-99585000D02*
X173119000Y-98151900D01*
%TO.N,OLED-SDA*%
X178199000Y-84337200D02*
X167759500Y-94776700D01*
X167759500Y-94776700D02*
X167759500Y-96170600D01*
X178199000Y-82911900D02*
X178199000Y-84337200D01*
%TO.N,OLED-SCL*%
X164006500Y-86902400D02*
X171668500Y-86902400D01*
X171668500Y-86902400D02*
X175659000Y-82911900D01*
%TO.N,MOTOR-1B*%
X176282700Y-96295100D02*
X178882200Y-96295100D01*
X178882200Y-96295100D02*
X180739000Y-98151900D01*
%TO.N,QTR-2*%
X208132000Y-80053000D02*
X198175700Y-90009300D01*
X198175700Y-90009300D02*
X191421600Y-90009300D01*
X191421600Y-90009300D02*
X183279000Y-98151900D01*
%TO.N,QTR-3*%
X208132000Y-82653000D02*
X195778500Y-95006500D01*
X195778500Y-95006500D02*
X188964400Y-95006500D01*
X188964400Y-95006500D02*
X185819000Y-98151900D01*
D31*
%TO.N,+5V*%
X133971000Y-85933500D02*
X133971000Y-82977900D01*
X133971000Y-82977900D02*
X125876000Y-74882900D01*
X125876000Y-74882900D02*
X125876000Y-57581800D01*
D30*
X143779100Y-90510200D02*
X143363000Y-90510200D01*
D31*
X143363000Y-90510200D02*
X138786300Y-85933500D01*
X138786300Y-85933500D02*
X133971000Y-85933500D01*
X150219000Y-95749400D02*
X149018300Y-95749400D01*
X149018300Y-95749400D02*
X143779100Y-90510200D01*
X133971000Y-86908800D02*
X133971000Y-85933500D01*
X134245300Y-89084100D02*
X135846800Y-90685600D01*
X135846800Y-90685600D02*
X135846800Y-112035700D01*
X135846800Y-112035700D02*
X133118000Y-114764500D01*
X133118000Y-114764500D02*
X133118000Y-125094500D01*
X133971000Y-88108800D02*
X133971000Y-86908800D01*
D30*
X134245300Y-88383100D02*
X133971000Y-88108800D01*
D31*
X134245300Y-89084100D02*
X134245300Y-88383100D01*
D30*
X153919000Y-103703000D02*
X153756000Y-103866000D01*
D31*
X153919000Y-96949400D02*
X153919000Y-103703000D01*
D30*
%TO.N,QTR-4*%
X208132000Y-85253000D02*
X197628200Y-95756800D01*
X197628200Y-95756800D02*
X190754100Y-95756800D01*
X190754100Y-95756800D02*
X188359000Y-98151900D01*
%TO.N,QTR-5*%
X208132000Y-87853000D02*
X199477900Y-96507100D01*
X199477900Y-96507100D02*
X192543800Y-96507100D01*
X192543800Y-96507100D02*
X190899000Y-98151900D01*
%TO.N,QTR-6*%
X208132000Y-90453000D02*
X200433100Y-98151900D01*
X200433100Y-98151900D02*
X195979000Y-98151900D01*
%TO.N,Net-(BZ1-Pad1)*%
X109370000Y-82029300D02*
X109370000Y-83654600D01*
X115199300Y-92410300D02*
X115199300Y-89483900D01*
X115199300Y-89483900D02*
X109370000Y-83654600D01*
%TO.N,Net-(J2-Pad2)*%
X103660000Y-92090200D02*
X103660000Y-93415500D01*
X103335000Y-98976200D02*
X103335000Y-93740500D01*
X103335000Y-93740500D02*
X103660000Y-93415500D01*
X99956600Y-98976200D02*
X103335000Y-98976200D01*
X99956600Y-98976200D02*
X99956600Y-98602800D01*
X99956600Y-105102800D02*
X99956600Y-98976200D01*
D31*
%TO.N,+BATT*%
X119082500Y-117394000D02*
X119082500Y-111044200D01*
X119082500Y-111044200D02*
X113772700Y-105734400D01*
X113772700Y-105734400D02*
X112288400Y-105734400D01*
X112288400Y-105734400D02*
X110373000Y-103819000D01*
%TO.N,-BATT*%
X114830500Y-117368600D02*
X114830500Y-111576500D01*
X114830500Y-111576500D02*
X110373000Y-107119000D01*
D30*
%TO.N,MOTOR-EN*%
X156296000Y-103866000D02*
X156296000Y-102390700D01*
X153919000Y-93349400D02*
X154350800Y-93349400D01*
X154350800Y-93349400D02*
X156296000Y-95294600D01*
X156296000Y-95294600D02*
X156296000Y-102390700D01*
%TO.N,Net-(R2-Pad1)*%
X103660000Y-87010200D02*
X103708000Y-86962200D01*
X103708000Y-86962200D02*
X103708000Y-80977700D01*
X99756000Y-93578800D02*
X99756000Y-87078800D01*
%TO.N,Net-(R3-Pad1)*%
X99875300Y-75897700D02*
X99875300Y-75763100D01*
X99875300Y-82263100D02*
X99875300Y-75897700D01*
X99875300Y-75897700D02*
X103708000Y-75897700D01*
D31*
%TO.N,+12V*%
X137371000Y-88108800D02*
X137371000Y-89084100D01*
D30*
X150219000Y-96949400D02*
X149933300Y-97235100D01*
D31*
X149933300Y-97235100D02*
X143096700Y-97235100D01*
X143096700Y-97235100D02*
X139945600Y-94084000D01*
X139945600Y-94084000D02*
X139945600Y-91658700D01*
X139945600Y-91658700D02*
X137371000Y-89084100D01*
X137371000Y-86908800D02*
X137371000Y-88108800D01*
D30*
%TO.N,Net-(U3-Pad1)*%
X150219000Y-93349400D02*
X149809700Y-93349400D01*
X149809700Y-93349400D02*
X147022700Y-90562400D01*
X147022700Y-90562400D02*
X147022700Y-86506000D01*
X147022700Y-86506000D02*
X133736100Y-73219400D01*
%TO.N,Net-(U3-Pad5)*%
X134936000Y-57602100D02*
X134936000Y-59227400D01*
X134936000Y-59227400D02*
X147875300Y-72166700D01*
X147875300Y-72166700D02*
X147875300Y-90209400D01*
X147875300Y-90209400D02*
X149815300Y-92149400D01*
X149815300Y-92149400D02*
X150219000Y-92149400D01*
%TO.N,Net-(U3-Pad11)*%
X135382200Y-125127500D02*
X135382200Y-117376500D01*
X135382200Y-117376500D02*
X151345200Y-101413500D01*
X151345200Y-101413500D02*
X151345200Y-91675600D01*
X151345200Y-91675600D02*
X150619000Y-90949400D01*
X150619000Y-90949400D02*
X150219000Y-90949400D01*
%TO.N,Net-(U3-Pad7)*%
X124058000Y-125074200D02*
X124058000Y-126699500D01*
X124058000Y-126699500D02*
X124120100Y-126761600D01*
X124120100Y-126761600D02*
X136107800Y-126761600D01*
X136107800Y-126761600D02*
X145978200Y-116891200D01*
X145978200Y-116891200D02*
X145978200Y-108133100D01*
X145978200Y-108133100D02*
X152096400Y-102014900D01*
X152096400Y-102014900D02*
X152096400Y-91232200D01*
X152096400Y-91232200D02*
X150613600Y-89749400D01*
X150613600Y-89749400D02*
X150219000Y-89749400D01*
%TD*%
M02*
